<?xml version="1.0" standalone="no"?>
<!DOCTYPE svg PUBLIC "-//W3C//DTD SVG 20010904//EN"
 "http://www.w3.org/TR/2001/REC-SVG-20010904/DTD/svg10.dtd">
<svg version="1.0" xmlns="http://www.w3.org/2000/svg"
 width="417.000000pt" height="417.000000pt" viewBox="0 0 417.000000 417.000000"
 preserveAspectRatio="xMidYMid meet">
<metadata>
Created by potrace 1.14, written by Peter Selinger 2001-2017
</metadata>
<g transform="translate(0.000000,417.000000) scale(0.100000,-0.100000)"
fill="#000000" stroke="none">
<path d="M2755 4133 c-33 -193 -105 -330 -212 -404 -50 -35 -147 -69 -194 -69
l-29 0 0 -65 0 -65 120 0 120 0 0 -608 c0 -361 4 -641 10 -691 15 -114 54
-231 95 -286 20 -25 29 -45 22 -45 -27 0 -161 -72 -218 -117 -111 -87 -209
-241 -263 -411 -77 -245 -77 -601 0 -831 74 -219 208 -389 374 -470 288 -141
621 -67 816 182 141 180 214 427 214 722 0 308 -86 564 -246 735 -41 43 -98
93 -127 111 -28 18 -53 34 -55 35 -2 1 17 21 42 45 110 101 176 337 176 629
l0 100 -44 0 -43 0 -7 -129 c-16 -289 -80 -446 -191 -467 -121 -22 -189 62
-214 261 -7 56 -11 306 -11 663 l0 572 200 0 200 0 0 70 0 70 -205 0 -205 0 0
250 0 250 -60 0 -59 0 -6 -37z m190 -2390 c140 -74 248 -307 301 -648 25 -167
24 -452 -3 -577 -40 -186 -128 -318 -234 -353 -248 -83 -454 223 -510 755 -17
163 -7 423 21 525 40 146 112 260 191 301 70 36 162 34 234 -3z"/>
<path d="M810 3618 c-135 -44 -247 -82 -248 -83 -2 -2 1 -20 8 -40 9 -26 16
-34 28 -31 112 33 152 31 179 -11 17 -25 18 -78 24 -663 4 -436 9 -648 17
-677 22 -80 61 -153 108 -203 l47 -50 -202 0 -202 0 3 -37 c3 -38 4 -38 54
-44 140 -17 173 -58 388 -488 l174 -346 -162 -321 c-88 -176 -176 -341 -195
-367 -56 -77 -134 -117 -228 -117 l-43 0 0 -45 0 -45 300 0 300 0 0 44 0 44
-71 4 c-60 3 -74 8 -90 27 -13 16 -17 31 -13 50 7 30 266 571 274 571 12 0
291 -568 291 -591 -1 -38 -24 -52 -99 -58 l-67 -6 0 -40 0 -40 390 0 390 0 0
40 0 40 -63 7 c-77 8 -137 41 -183 100 -18 23 -117 206 -220 407 l-187 366 43
80 c258 491 292 551 340 600 54 56 119 85 187 85 38 0 38 0 38 40 l0 39 -92 3
-93 3 173 64 c94 35 172 67 172 71 0 15 -22 70 -28 70 -4 0 -29 -7 -56 -15
-69 -21 -109 -19 -132 6 -18 20 -19 50 -22 808 l-2 788 -25 23 -25 24 -58 -18
c-31 -10 -149 -47 -261 -84 l-203 -66 6 -34 c3 -19 6 -36 8 -37 2 -2 30 3 63
11 33 8 75 12 93 9 62 -11 62 -9 62 -634 l0 -559 -47 -56 c-107 -125 -225
-196 -326 -196 -89 0 -140 35 -174 120 -16 41 -18 102 -21 775 -2 728 -2 730
-23 748 -12 9 -29 17 -38 16 -9 0 -126 -37 -261 -81z m899 -1625 l1 -133 -75
0 -75 0 0 -40 0 -40 53 0 c28 0 63 -6 77 -13 46 -24 34 -61 -110 -340 -74
-141 -136 -257 -139 -257 -12 0 -271 531 -271 554 0 35 23 48 93 55 57 5 62 8
65 31 3 20 18 32 75 59 81 39 191 141 253 234 48 74 52 66 53 -110z"/>
</g>
</svg>
