<?xml version="1.0" standalone="no"?>
<!DOCTYPE svg PUBLIC "-//W3C//DTD SVG 20010904//EN"
 "http://www.w3.org/TR/2001/REC-SVG-20010904/DTD/svg10.dtd">
<svg version="1.0" xmlns="http://www.w3.org/2000/svg"
 width="3554.000000pt" height="3554.000000pt" viewBox="0 0 3554.000000 3554.000000"
 preserveAspectRatio="xMidYMid meet">
<metadata>
Created by potrace 1.14, written by Peter Selinger 2001-2017
</metadata>
<g transform="translate(0.000000,3554.000000) scale(0.100000,-0.100000)"
fill="#000000" stroke="none">
<path d="M22240 32013 c-387 -37 -703 -170 -999 -418 -542 -455 -810 -1205
-671 -1880 80 -387 273 -721 578 -999 l53 -48 -83 -86 c-96 -100 -166 -192
-233 -304 l-47 -78 -45 92 c-56 117 -152 261 -238 358 -428 483 -1087 661
-1690 455 -104 -36 -270 -120 -381 -195 -56 -37 -90 -54 -92 -46 -1 7 9 147
23 311 14 165 25 360 25 435 -1 347 -94 654 -283 935 -75 111 -292 330 -397
402 -173 117 -362 199 -575 249 -112 27 -134 28 -335 28 -184 0 -229 -3 -313
-22 -318 -71 -558 -202 -787 -432 -264 -264 -417 -574 -475 -965 -8 -55 -59
-629 -114 -1275 -55 -646 -103 -1201 -107 -1233 l-6 -59 -45 79 c-423 744
-1149 1284 -2008 1494 -361 88 -783 102 -1152 38 -387 -67 -759 -215 -1093
-434 -314 -205 -620 -506 -837 -822 l-50 -72 -77 129 c-112 188 -242 356 -395
512 -284 292 -543 453 -933 581 -279 93 -459 121 -758 121 -318 0 -524 -34
-855 -141 -711 -231 -1311 -651 -1840 -1288 -714 -860 -1144 -1822 -1299
-2906 -52 -363 -61 -493 -61 -964 0 -446 7 -593 45 -920 17 -144 29 -196 124
-525 57 -201 132 -445 165 -543 156 -458 359 -875 601 -1238 l57 -86 -28 -250
c-47 -417 -86 -930 -108 -1398 -8 -160 -14 -206 -37 -290 l-28 -100 -1 -920
c0 -1286 10 -2055 29 -2230 78 -705 255 -1296 591 -1980 155 -316 354 -653
1085 -1845 325 -531 805 -1330 1030 -1715 516 -885 1106 -1540 1855 -2062 192
-134 352 -229 835 -498 239 -133 716 -400 1060 -592 1854 -1039 2532 -1394
3055 -1603 864 -345 1494 -415 2935 -325 556 34 1105 45 2065 38 814 -6 1046
0 1395 33 459 43 926 137 1319 265 486 159 887 355 1621 794 113 67 293 173
400 235 371 214 658 385 1293 772 351 213 781 472 955 574 488 287 801 500
1097 747 538 449 984 965 1327 1537 41 69 157 274 258 455 101 182 220 389
265 460 201 320 391 661 546 981 119 243 231 446 774 1389 527 917 808 1778
912 2795 25 245 25 945 0 1240 -32 384 -42 941 -27 1610 13 644 5 1069 -25
1251 -29 173 -92 335 -191 486 -69 108 -239 280 -345 349 l-75 50 38 45 c105
121 216 321 273 493 110 332 109 655 -5 997 -79 237 -209 448 -385 624 -175
175 -360 292 -584 369 -183 64 -281 80 -491 80 -206 1 -323 -17 -501 -75 -144
-47 -381 -165 -558 -278 -12 -8 26 50 86 130 338 447 572 914 727 1453 105
361 130 523 130 831 1 261 -9 349 -64 573 -167 682 -652 1257 -1292 1531 -602
258 -1269 320 -1855 172 -415 -105 -788 -296 -1158 -592 -153 -122 -471 -436
-606 -599 -212 -255 -390 -515 -534 -781 -42 -78 -45 -81 -41 -44 3 22 8 119
11 215 14 419 68 1025 131 1470 46 326 41 527 -21 761 -58 223 -179 457 -314
610 l-41 47 69 50 c343 250 578 603 692 1037 81 312 89 634 23 934 -141 630
-621 1154 -1250 1360 -229 75 -518 114 -714 94z m352 -952 c307 -80 562 -300
669 -576 50 -128 62 -211 56 -380 -6 -186 -35 -305 -107 -451 -137 -276 -379
-440 -700 -476 -293 -32 -587 68 -790 272 -124 123 -206 275 -241 445 -103
498 231 1054 706 1175 103 26 290 22 407 -9z m-5546 -786 c258 -81 430 -294
464 -574 13 -106 26 61 -136 -1841 -68 -811 -127 -1527 -130 -1590 l-5 -115
96 100 c53 55 322 370 598 700 829 992 883 1054 1027 1159 140 103 264 149
405 150 114 0 177 -15 293 -70 74 -36 106 -59 165 -118 130 -131 187 -256 194
-426 6 -124 -10 -204 -60 -313 -51 -109 14 -30 -1310 -1602 -181 -214 -348
-408 -373 -431 l-44 -40 296 -430 c163 -236 489 -701 724 -1034 235 -333 449
-638 475 -678 128 -198 162 -365 115 -562 -74 -308 -300 -499 -612 -517 -123
-7 -200 7 -306 58 -100 48 -201 139 -296 268 -35 47 -341 484 -681 971 -340
487 -638 911 -662 943 -49 63 -75 71 -138 41 -73 -34 -81 -66 -116 -499 -55
-686 -151 -1759 -170 -1899 -16 -122 -53 -255 -94 -337 -50 -99 -180 -230
-278 -277 -161 -79 -331 -92 -492 -38 -298 101 -455 350 -455 720 0 45 61 800
135 1677 131 1547 163 1915 395 4639 61 707 115 1319 121 1360 26 180 91 320
199 434 98 102 224 173 351 195 83 15 216 5 305 -24z m5419 -2170 c33 -8 101
-35 150 -59 192 -95 314 -267 346 -488 15 -98 12 -128 -46 -453 -129 -729
-213 -1584 -245 -2490 -10 -287 -24 -418 -56 -525 -52 -176 -189 -343 -344
-419 -190 -93 -379 -94 -566 -2 -148 73 -275 235 -334 426 -44 143 -47 211
-34 600 15 415 26 584 60 925 59 592 191 1685 219 1821 23 112 63 224 113 324
86 168 245 297 417 339 80 19 246 20 320 1z m-10011 -145 c525 -38 1051 -287
1422 -672 170 -177 282 -338 390 -563 103 -214 165 -419 201 -664 21 -142 24
-493 5 -626 -62 -441 -221 -818 -474 -1120 -342 -409 -800 -662 -1321 -730
-588 -76 -1170 115 -1633 536 -418 381 -671 875 -735 1438 -17 156 -7 495 21
651 27 156 121 445 193 594 318 661 961 1105 1672 1156 55 4 105 8 110 8 6 1
73 -3 149 -8z m-4426 -54 c408 -103 672 -288 904 -635 319 -478 449 -1113 337
-1651 -26 -127 -52 -205 -109 -325 -135 -283 -337 -553 -629 -845 -232 -231
-323 -282 -501 -284 -68 0 -111 5 -150 18 -249 85 -380 256 -380 494 1 197 86
358 359 682 283 333 397 537 446 794 28 144 13 282 -37 365 -37 61 -119 141
-218 215 -208 156 -354 179 -604 95 -391 -131 -765 -438 -1107 -909 -336 -462
-557 -1010 -663 -1645 -124 -738 -60 -1435 191 -2095 297 -781 768 -1335 1418
-1667 349 -178 735 -292 1199 -355 214 -30 681 -32 876 -5 889 123 1565 503
2114 1188 221 276 373 514 557 875 143 280 190 354 266 424 100 91 203 130
348 130 209 0 385 -106 468 -282 61 -128 71 -229 37 -363 -24 -92 -220 -496
-358 -736 -228 -396 -536 -802 -847 -1115 -460 -463 -901 -736 -1525 -945
-1323 -441 -2559 -340 -3709 303 -617 345 -1018 703 -1356 1212 -180 271 -336
581 -458 911 -66 179 -102 294 -202 645 -70 244 -77 279 -95 449 -94 899 -4
1777 257 2501 239 663 634 1291 1113 1770 422 422 937 704 1465 801 153 28
451 21 593 -15z m18900 -1322 c194 -26 421 -92 591 -170 175 -81 385 -252 496
-404 200 -274 296 -618 265 -947 -33 -353 -198 -844 -411 -1221 -183 -324
-406 -602 -760 -947 -307 -300 -560 -493 -992 -758 l-137 -84 30 -39 c17 -21
61 -60 98 -87 354 -258 804 -398 1282 -398 238 -1 408 23 619 88 240 72 425
160 701 333 296 186 432 240 604 240 172 0 305 -56 426 -179 204 -207 255
-505 130 -758 -53 -107 -119 -173 -295 -295 -896 -619 -1627 -834 -2490 -733
-563 66 -1104 253 -1604 556 -281 171 -528 366 -779 615 l-182 181 -133 -49
c-266 -99 -599 -182 -902 -224 -161 -22 -660 -30 -938 -15 -451 26 -717 76
-907 171 -83 42 -207 138 -276 213 -177 193 -192 443 -41 675 130 198 297 288
628 336 166 25 338 20 700 -18 546 -58 694 -69 904 -63 190 5 274 16 453 59
l93 22 -8 141 c-14 245 -8 703 11 870 85 734 335 1345 780 1905 138 173 441
473 591 586 210 157 387 252 606 325 277 93 539 116 847 73z m-6404 -309 c-10
-140 -20 -255 -23 -255 -48 3 -341 57 -342 64 -3 11 372 458 379 452 2 -3 -4
-120 -14 -261z m9490 -6535 c62 -30 128 -97 161 -165 22 -43 29 -78 37 -172
13 -161 15 -680 4 -1268 -9 -528 2 -1067 30 -1405 34 -416 29 -917 -12 -1280
-86 -756 -351 -1541 -759 -2245 -406 -700 -571 -994 -1210 -2150 -246 -445
-500 -902 -565 -1015 -256 -451 -500 -772 -849 -1120 -343 -342 -681 -602
-1131 -869 -118 -71 -321 -191 -450 -268 -129 -77 -494 -297 -810 -490 -568
-345 -897 -541 -1180 -703 -80 -46 -261 -152 -402 -237 -419 -249 -560 -328
-808 -452 -610 -304 -1118 -439 -1920 -513 -97 -9 -480 -12 -1370 -13 -1266
-2 -1327 -3 -2000 -47 -454 -30 -1186 -32 -1415 -5 -499 60 -894 182 -1459
449 -410 194 -1235 640 -2691 1456 -319 179 -756 423 -972 543 -469 260 -622
355 -836 515 -222 166 -362 288 -562 489 -382 383 -621 707 -992 1343 -212
365 -475 802 -973 1617 -800 1309 -943 1554 -1089 1871 -269 583 -414 1127
-450 1689 -6 83 -11 749 -13 1480 l-3 1330 23 47 c102 207 408 187 488 -31 15
-42 17 -156 24 -1226 9 -1243 11 -1314 60 -1682 76 -570 231 -1079 467 -1533
89 -171 179 -321 872 -1453 549 -895 693 -1139 911 -1537 459 -839 866 -1358
1400 -1784 257 -205 402 -296 890 -561 586 -317 1283 -698 2385 -1303 567
-311 1086 -594 1155 -628 349 -174 746 -296 1170 -358 316 -46 396 -51 945
-51 718 0 3384 33 3670 45 677 30 1138 109 1550 265 276 105 466 210 1280 710
623 383 1625 975 2190 1295 858 485 1216 733 1570 1085 325 322 533 627 958
1405 416 762 1138 2053 1422 2545 195 337 292 516 366 675 346 750 488 1475
451 2308 -24 540 -33 1170 -30 2167 l3 1010 26 56 c83 177 272 249 443 169z
m-17070 -1189 c130 -63 245 -213 277 -360 16 -75 6 -194 -21 -264 -27 -72
-125 -180 -199 -220 -214 -117 -436 -95 -580 58 -183 194 -171 487 28 686 107
107 188 140 331 136 84 -3 103 -7 164 -36z m10196 -581 c189 -62 1020 -459
1173 -560 201 -134 260 -244 223 -420 -51 -242 -278 -472 -526 -531 -75 -18
-211 -16 -290 4 -91 24 -236 97 -329 167 -104 79 -277 260 -344 363 -110 166
-200 380 -233 555 -24 128 -16 290 17 357 52 103 138 121 309 65z m-5103
-1725 c147 -36 285 -123 390 -246 123 -145 342 -531 392 -694 68 -216 20 -406
-144 -571 -75 -76 -86 -83 -185 -121 -365 -142 -771 -107 -1069 92 -91 60
-224 202 -285 303 -116 195 -166 421 -135 612 54 338 321 579 707 640 79 12
247 5 329 -15z m-6632 -1739 c33 -9 98 -35 144 -57 69 -32 100 -56 171 -127
73 -73 95 -102 133 -182 58 -118 77 -198 77 -320 0 -180 -49 -301 -174 -426
-88 -88 -178 -141 -311 -184 -108 -34 -312 -40 -425 -11 -331 83 -587 351
-607 633 -23 314 234 595 617 679 102 23 281 20 375 -5z m12488 -1992 c145
-51 292 -246 357 -475 31 -108 38 -300 15 -405 -49 -228 -202 -392 -397 -426
-190 -33 -375 102 -468 343 -50 130 -63 215 -57 364 6 151 22 216 82 340 109
227 283 323 468 259z m-7866 -1850 c87 -51 405 -282 503 -366 196 -168 350
-407 412 -636 28 -105 30 -304 5 -417 -57 -249 -218 -427 -462 -511 -72 -25
-94 -28 -215 -29 -158 0 -228 18 -331 87 -110 74 -197 213 -273 438 -48 142
-172 598 -202 740 -62 298 -35 480 91 606 90 91 202 135 327 130 68 -2 84 -7
145 -42z"/>
<path d="M12210 26706 c-325 -69 -564 -313 -653 -666 -32 -129 -30 -358 6
-492 89 -335 328 -601 631 -704 325 -111 687 19 893 319 119 171 164 319 164
532 0 289 -103 549 -299 757 -111 118 -250 203 -397 242 -84 23 -264 29 -345
12z"/>
<path d="M26510 25257 c-147 -45 -290 -141 -467 -311 -191 -183 -305 -339
-423 -581 -131 -267 -213 -568 -255 -930 -21 -181 -20 -195 8 -195 28 0 212
106 372 214 190 128 358 267 521 430 327 328 487 576 656 1016 53 141 63 175
63 229 0 63 -1 66 -34 88 -56 38 -128 55 -251 59 -99 4 -125 1 -190 -19z"/>
</g>
</svg>
